<svg xmlns="http://www.w3.org/2000/svg" viewBox="0 0 128 116.3"><path fill="var(--icon-fill, #b3b3b3)" fill-rule="evenodd" stroke="var(--icon-stroke, #000)" stroke-width="1" d="M119.9 85.5v7.2l2.2.3 1.1 15-.6 1.2q-.4.3-2.7.6v-.7q0-.5-.6-.6t-.6.6v.9l-4 .3v-1.2q0-.5-.7-.6c-.7 0-.6.3-.6.6v1.3l-3.5.2v-1.8q0-.7-.6-.7t-.6.7v1.8l-3 .2v-2.6q0-.7-.6-.7t-.6.7v2.6l-3.9.1v-3.4q0-.5-.6-.6t-.6.6v3.5l-5.3.1v-3.6q0-.5-.6-.6t-.6.6v3.6l-5 .2-.8-10.9-17 2.4q.5 3.9-.3 7.6l-5.6.6v-1.7q0-.6-.6-.6-.8 0-.7.6v1.9l-6 .3v-1.9q0-.5-.7-.6c-.7 0-.6.3-.6.6v2h-5.3v-2q0-.5-.6-.6t-.6.6v2q-2.6 0-5-.2v-2.2q0-.5-.6-.6t-.6.6v2.2l-5.6-.4.2-2.2q0-.6-.5-.7t-.7.6l-.2 2.2-5-.6.2-2.4q0-.5-.5-.7-.5 0-.7.6l-.2 2.4-4.9-.7.2-2q0-.6-.6-.8-.5 0-.6.6l-.2 2-4.7-1 .4-2.4q0-.5-.5-.7-.5 0-.7.5l-.4 2.4-3.9-1 .3-1.8q0-.6-.5-.7t-.7.5l-.3 1.7-3.7-1.3.3-1.7q0-.5-.5-.7-.5 0-.7.5l-.2 1.5-.7-.3c-3-1.4-2.7-1.3-2.4-4.3l.5-5.6q.7-.7 2.2-.3l-.3-2.9 1-.2q.1-6.3 2.9-6.3c1.6-3.8 5.7-5.3 11.2-5.2q13.5.7 23.6-4.6a75 75 0 0 0 16.2-15q5.2-7.2 9.7-14.8C75.4 33 76.6 20 77 7c13-3.7 26.4-2.7 40.2 2q.6 1 .1 3.3l-5 22.8A59 59 0 0 0 111 54h.8l5.5 21.8v2.8c1.1.2 1.8 1 1.9 3.4l-.3 3.5z" vector-effect="non-scaling-stroke"/><path fill="none" stroke="var(--icon-stroke, #000)" stroke-width="1" d="M5 99c24.5 4.9 46.8 6.8 65.2 3.8m16.9-2.4q17-2.5 35.3-3.5m-2.4-4.2-32.6 3.4v4.3m-17.6 2.5-.2-4.4c-22.8 4-45.9-.2-64.2-3.6m64.2 3.9 17.8-2.3M119 85.4c-6 1.4-12.4 1.8-18.7 2.7q-14.4 1.8-28.7 5A132 132 0 0 1 38 95.6q-15.6-1.3-30.7-4m3.8-6.5Q10 89 13.5 89.4q13.6 1.9 28.2 2.3Q55 91.5 68.5 88c9.5-2.7 19-5.1 29.4-6.5q9.8-1.1 19.5-3" vector-effect="non-scaling-stroke"/><path fill="var(--icon-fill, #b3b3b3)" fill-rule="evenodd" stroke="var(--icon-stroke, #000)" stroke-width="1" d="M117 9a67 67 0 0 0-40-2c-.4 13-1.5 26-5 38.6q-4.5 7.5-9.8 14.8a75 75 0 0 1-16.2 15A45 45 0 0 1 22.5 80c-5.6 0-9.6 1.4-11.3 5.2q-2.8 0-3 6.3l-.9.2q15 2.7 30.7 4 16.4.8 33.5-2.7 14.2-3.1 28.7-5c6.3-.8 12.6-1.2 18.8-2.6l.2-3.5q-.1-3.3-1.8-3.4v-2.8l-5.6-21.8h-.7c-.8-6.4 0-12.6 1.2-18.7l5-22.9q.3-2.1-.2-3.4Z" vector-effect="non-scaling-stroke"/><path fill="var(--icon-fill, #b3b3b3)" fill-rule="evenodd" stroke="var(--icon-stroke, #000)" stroke-width="1" d="M119 85.4c-6.2 1.4-12.5 1.8-18.8 2.7Q85.8 89.9 71.5 93A132 132 0 0 1 38 95.7q-15.6-1.3-30.7-4l.3 3c-.8-.3-1.9-.4-2.2.2 18.3 3.4 41.4 7.5 64.2 3.6v.3l17.8-2.3V96l32.6-3.4-.1-7.2-1-.1Z" vector-effect="non-scaling-stroke"/><path fill="var(--icon-fill, #b3b3b3)" fill-rule="evenodd" stroke="var(--icon-stroke, #000)" stroke-width="1" d="m120 92.7-32.6 3.4v4.3q17-2.6 35-3.5l-.3-4z" vector-effect="non-scaling-stroke"/><path fill="var(--icon-fill, #b3b3b3)" fill-rule="evenodd" stroke="var(--icon-stroke, #000)" stroke-width="1" d="M122.4 96.9q-18 1-35 3.5H87l.7 10.9 5-.2v-3.6q0-.5.7-.6c.7 0 .6.3.6.6v3.6l5.3-.1v-3.5q0-.5.6-.6.8 0 .6.6v3.4h4v-2.7q0-.7.5-.7.7 0 .7.7v2.6l2.9-.2v-1.8q0-.7.6-.7t.6.7v1.8l3.5-.2v-1.3q0-.5.6-.6.8 0 .6.6v1.2q2.4 0 4.1-.3v-.9q0-.5.6-.6.8 0 .6.6v.7q2.3-.3 2.7-.6l.7-1.2-1-11.1Z" vector-effect="non-scaling-stroke"/><path fill="var(--icon-fill, #b3b3b3)" fill-rule="evenodd" stroke="var(--icon-stroke, #000)" stroke-width="1" d="M87.4 100.4v-4l-17.8 2.4.2 4h.4l16.9-2.4z" vector-effect="non-scaling-stroke"/><path fill="var(--icon-fill, #b3b3b3)" fill-rule="evenodd" stroke="var(--icon-stroke, #000)" stroke-width="1" d="m69.8 102.8-.2-4v-.3c-22.8 3.9-45.9-.2-64.2-3.6L5.1 99c24.2 4.8 46.3 6.7 64.6 3.8Z" vector-effect="non-scaling-stroke"/><path fill="var(--icon-fill, #b3b3b3)" fill-rule="evenodd" stroke="var(--icon-stroke, #000)" stroke-width="1" d="M69.8 102.8c-18.4 3-40.5 1-64.7-3.8l-.2 1.5c-.2 3-.6 2.9 2.5 4.3l.6.3.3-1.5q0-.5.7-.5.5.1.5.7l-.3 1.7 3.7 1.3.3-1.7q0-.5.6-.5.6.1.5.7L14 107l4 1 .3-2.4q.1-.5.7-.5.6.1.5.7l-.4 2.4 4.7 1 .2-2q0-.5.7-.5t.5.6l-.2 2 5 .8.2-2.4q0-.5.6-.6.6.1.6.7l-.2 2.4 5 .6.1-2.2q.1-.6.7-.6t.6.7l-.3 2.2 5.6.4v-2.2q0-.5.6-.6.8 0 .6.6v2.2l5 .2v-2q0-.5.7-.6c.7-.1.6.3.6.6v2h5.2v-2q0-.5.6-.6.8 0 .7.6v2l6-.4v-2q0-.4.7-.5c.7-.1.6.2.6.6v1.8l5.6-.7q.7-3.7.4-7.6z" vector-effect="non-scaling-stroke"/><path fill="var(--icon-stroke, #000)" d="M72 45.7q-.2 0-.1-.2h.1zm.1-.2v.2h-.2zm0 0v.2zm.3.4v-.1h.2zm.4 0-.1.2h-.1l-.2-.2.2-.2zm0 0v.1q0 .1-.1 0zm.3.4q-.1 0 0-.1zm.3 0-.1.2-.2-.2v-.2zm0 0v.1h-.1zm.2.4v-.1h.2zm.4 0-.2.2-.2-.1.2-.2zm0 0v.2h-.2zm.1.5v-.1h.2zm.4 0-.2.2-.2-.2.2-.1zm0 0v.2h-.2zm0 .6.1-.2h.2zm.4 0-.2.2v-.1l-.1-.1.2-.1zm0 0v.2h-.2zm0 .6v-.1h.2zm.3.2H75l-.1-.1.2-.2zm0 0-.1.1H75zm-.2.5.1-.1h.2zm.3.2h-.2v-.2h.2zm0 0-.1.1h-.1zm0 .6h-.2v-.1zm0 0-.1.1-.1-.1zm0 .1h-.2zm0 0-.1.1H75zm-.3.5.2-.1zm.2.2H75v-.2h.3zm0 0v.1l-.2-.1zm0 .7H75v-.2h.2zm0 0-.1.1q-.2 0-.1-.1zm-.3.5q0-.2.1-.1h.1zm.2.2v-.2h.2zm0 0-.1.1-.1-.1zm-.3.4h.2zm.2.3h-.2v-.2h.3zm-.2.4h.2zm.2.3h-.3v-.3h.3zm0 0h-.2zm-.3.4h.1zm.2.3h-.3v-.3h.3zm0 0h-.2zm-.3.4h.2zm.2.3h-.3v-.3h.3zm0 0h-.2zm-.3.4.1-.1.1.1zm.2.3h-.3v-.3h.3zm0 0h-.2zm-.3.4.1-.1.1.1zm.2.2h-.3V56h.3zm0 0q0 .2-.2.1zm-.3.5.1-.1.1.1zm.2.2h-.3v-.2h.3zm0 0-.2.1zm-.3.5v-.1h.2zm.1.2h-.2v-.2h.3zm0 0v.1l-.2-.1zm-.3.4h.2zm.2.3H74V58h.3zm0 0-.1.1-.1-.1zm-.3.4h.2zm.2.3h-.2v-.3h.2zm-.3.4h.2zm.2.3h-.3v-.1l.1-.2h.2zm0 0h-.2zm-.3.4.1-.1v.1zm.1.3h-.2V60h.3zm0 0h-.2zm-.3.4.2-.1v.1zm.2.2h-.2v-.2h.2zm0 0-.1-.1zm-.3.5.1-.1.1.1zm.2.2h-.3v-.2h.3zm0 0-.2.1v-.1zm-.4.4h.2zm.2.3h-.2V62h.3zm0 0-.1-.1zm-.3.4h.2zm.2.3H73v-.3h.3zm0 0H73zm-.4.4.2-.1v.1zm.2.3h-.2v-.3h.3zm0 0h-.2zm-.3.4.1-.1v.1zm.1.2h-.2v-.2h.3zm0 0q0 .2-.1.1-.1 0 0-.1zm-.3.4h.1l.1.1zm.2.2h-.2v-.2zm0 0-.1-.1zm0 .1h-.2V65zm0 0-.1-.1zm-.3.4h.2zm.2.3h-.2v-.2h.2zm0 0-.1-.1zm-.2.4h.2zm.2.3h-.3v-.2h.3zm0 0-.2-.1zm-.3.5.1-.2q.2 0 .2.2zm.3.2h-.3V67h.3zm0 0-.2-.1zm-.3.5q0-.2.2-.2v.2zm.3.2h-.2v-.2h.2zm0 0-.1-.1zm-.2.5.1-.2.1.1zm.2.2h-.2v-.2h.2zm0 0-.2-.1zm-.1.5v-.2l.2.1zm.2.2h-.2V69h.2zm0 0h-.2zm-.1.5v-.2l.2.1zm.3.1h-.3v-.1h.2zm0 0-.1.2-.2-.1zm-.2.5h.2zm.3.2h-.2v-.2h.1zm0 0v.2l-.2-.1zm-.1.5h.2zm.3.2H73l-.1-.2h.2zm-.1.5h.2zm.3.2h-.2l-.1-.2h.2zm0 0h-.2zm0 .5v-.2h.1zm.2.1h-.2v-.1l.1-.1zm0 0h-.2zm0 .5h.2zm.3.1-.2.1-.1-.2h.2zm0 0v.2h-.2zm0 .6v-.2h.2zm.3 0-.2.2v-.1l-.1-.1zm0 0v.2H74zm0 .6v-.2h.2zm.3 0-.2.2v-.1l-.1-.1.2-.1zm0 0v.2h-.2zm0 .6v-.2h.2zm.3 0-.2.2v-.1zm0 0v.3h-.2zm0 .6.1-.1h.2zm.4 0-.2.2v-.1H75l.2-.2zm0 0v.2H75zm0 .6V76h.2zm.4 0-.2.2-.1-.1v-.1l.1-.1zm0 0v.2h-.2zm0 .6v-.2h.2zm.4 0-.2.2v-.1l-.2-.1.2-.1h.1zm0 0v.2h-.2zm0 .5v-.1h.2zm.4.1-.2.1-.1-.2h.2m0 0v.2h-.2zm0 .5.1-.2h.2zm.4 0-.2.2-.1-.2.2-.1zm0 0v.2h-.2zm.1.5v-.1h.2zm.4 0-.2.2-.2-.2.2-.1zm0 0v.2h-.2zm0 .6.1-.2h.2zm.4 0-.2.2-.1-.2.2-.2zm0 0v.2h-.2zm.2.5v-.2h.1zm.3 0-.2.2-.1-.2.1-.2zm0 0v.2H78zm.1.5h.2zm.4 0-.2.2-.2-.2.2-.1zm0 0v.2h-.2zm.1.5v-.1h.2zm.4 0-.2.2-.2-.2.2-.1zm0 0v.2H79zm.1.5v-.2h.2zm.4 0-.2.2-.2-.2.2-.2zm0 0v.2h-.2zm.2.5v-.2h.1zm.3 0-.2.1-.2-.1.2-.2zm0 0H80zm.2.5v-.2h.1zm.3 0-.2.1-.1-.1.1-.2h.1zm0 0-.2.1zm.2.4v-.2h.1zm.3 0-.1.2-.2-.2.1-.2zm.2.5v-.2h.2zm.4 0-.2.1-.2-.1.2-.2zm0 0-.2.1zm.2.4V83h.1zm.3 0-.2-.1.1-.2zm.2.4v-.1h.2zm.3 0v.2l-.3-.2.2-.1zm0 0q.1 0 0 .2zm.3.5h.1zm.2-.2-.1.2h-.1zm0 0v.2h-.1z"/><path fill="var(--icon-stroke, #000)" d="M76 77v-.2zm.1-.2v.2zm0 0v.2zm.5.1v-.2zm.2-.3v.3h-.2v-.2zm0 0v.2zm.5.1H77l.1-.2zm.1-.2.1.2h-.2v-.2zm0 0h.2l-.1.2zm.5 0h-.1v-.2zm.2-.2v.2h-.2v-.2zm0 0v.2zm.5 0v-.1zm.2-.2v.2h-.2v-.1zm0 0v.2zm.5 0h-.2l.1-.1zm.1-.2v.2h-.1l-.1-.1zm0 0h.2l-.1.2zm.5 0h-.1v-.1zm.2-.2v.2h-.2v-.1zm0 0v.2zm.5 0h-.2l.1-.1zm.1-.2.1.2h-.2v-.1zm0 0h.2l-.1.2zm.5 0a.1.1 0 0 1 0-.2zm.2-.2v.2h-.2v-.2zm0 0a.1.1 0 0 1 0 .2zm.5 0h-.2l.1-.2zm.1-.2.1.2H82zm0 0h.2v.2zm.5 0h-.1v-.2zm.2-.3v.2l-.2.1V75zm.5 0H83l.1-.1zm.1-.2.1.2h-.2v-.1zm0 0h.2v.2zm.5 0h-.1v-.2zm.2-.3v.3h-.2v-.2zm0 0v.2zm.5.1h-.2l.1-.2zm.1-.3.1.2-.2.1v-.2zm0 0h.2l-.1.2zm.5 0v-.2zm.2-.3v.3h-.2V74zm0 0v.2zm.5 0h-.2v-.1zm0-.2.2.2h-.2l-.1-.1zm0 0h.2v.2zm.6 0h-.2l.1-.2zm.1-.3.1.2-.2.1v-.2zm0 0h.2v.2zm.5 0V73zm.1-.3.1.2-.2.1v-.2zm0 0 .2.1v.1zm.6 0h-.2v-.2zm0-.3.2.3h-.2l-.1-.2zm0 0 .2.1v.2zm.6 0H88v-.1zm0-.2.2.2h-.2l-.1-.2zm0 0h.2v.2zm.6 0-.2-.1.1-.2zm.1-.4.1.3h-.2l-.1-.2zm0 0 .2.1-.1.2zm.5 0h-.1v-.2zm.1-.3.1.2-.2.1V72zm0 0h.2v.2zm.5 0v-.2zm.1-.3.1.2-.2.1v-.2zm0 0h.2v.2zm.5 0h-.1v-.2zm.1-.3.1.2h-.2v-.1zm0 0h.2v.2zm.5 0-.1-.1v-.2zm.1-.4.1.2-.2.1V71zm0 0h.2v.2zm.5 0h-.1v-.2zm.1-.3.1.2H92zm0 0h.2v.2zm.5 0-.1-.1v-.2zm0-.4.2.2h-.1v.1l-.2-.2zm0 0h.2v.2zm.6 0h-.2v-.2zm0-.4.2.2-.2.2-.1-.2zm0 0h.2v.2zm.6 0h-.2v-.2zm0-.4.1.2-.1.2-.2-.2zm0 0h.2v.2zm.5 0h-.1V69zm0-.4.2.2-.2.2-.1-.2zm0 0h.2v.2zm.6 0h-.2v-.2zm0-.4.2.2-.2.2-.2-.2zm0 0h.2v.2zm.5 0h-.1v-.2zm0-.4.2.2-.2.1-.1-.1zm0 0h.2v.2zm.6-.1h-.2v-.2zm0-.3.1.2-.2.1v-.3m0 0v.2zm.5-.1h-.2v-.2zm0-.4.2.2-.2.2-.2-.2zm0 0h.2v.2zm.5-.1h-.2v-.2zm0-.3.2.1-.2.2-.2-.2zm0 0h.2v.1zm.5-.2h-.2v-.1zm0-.3.2.2-.2.1-.1-.1zm0 0h.2v.2zm.5-.2h-.2V66zm0-.3.2.2-.2.1-.2-.1zm0 0h.2v.2zm.5-.2h-.2v-.1zm0-.3.1.2-.1.1-.2-.1zm0 0v.2zm.5-.2h-.2V65zm-.1-.2-.2-.1zm0 0h.2v.1zm0 0q0-.2.2-.1v.1zm.5-.3H99v-.2zm0-.3-.1.2-.2-.2zm.4-.3h-.2zm0-.3-.1.2-.2-.1zm.4-.2h-.2v-.2zm0-.4.1.2-.1.2-.2-.2zm0 0v.2zm.4-.2h-.2v-.1zm0-.3-.1.1-.2-.1v-.1zm0 0q.2 0 .1.1zm.4-.3h-.2v-.1zm-.1-.3.2.1-.1.2-.2-.1zm0 0h.2v.1zm.4-.3h-.1zm0-.3.2.1-.2.2h-.2zm0 0a.1.1 0 0 1 .2.1zm.4-.3h-.2zm-.1-.3.2.1v.1l-.1.1h-.2v-.2zm0 0h.2v.1zm.4-.3h-.1zm0-.3v.2h-.3zm.3-.3h-.1zm0-.3v.2h-.3zm.4-.3h-.2v-.1zm-.2-.3h.3l-.1.3-.3-.1zm0 0h.2zm.5-.3h-.2v-.1zm-.1-.3h.2l-.1.2h-.3v-.1zm.4-.3h-.2V58zm-.1-.3h.2l-.1.3-.2-.1zm0 0h.2zm.5-.3h-.2v-.1zm0-.3.1.2-.1.1-.2-.1zm0 0v.2zm.4-.1h-.1v-.2zm0-.3.2.2h-.1l-.2-.1zm0 0h.3v.2zm.6 0-.1-.1v-.2zm.1-.4.1.2-.2.1-.1-.2zm0 0h.2v.2zm.5 0h-.1v-.2zm.1-.2.1.2h-.2v-.2zm0 0h.2v.2zm.6 0h-.2V56zm.1-.3v.2l-.1.1-.1-.2zm0 0v.2zm.5.1a.1.1 0 0 1 0-.2zm.2-.3v.2l-.2.1v-.2zm0 0a.1.1 0 0 1 0 .2zm.5.1h-.2l.1-.2zm.1-.3v.2l-.1.1-.1-.2zm0 0h.2l-.1.2zm.5.1h-.1v-.2zm.2-.3v.3h-.2v-.2zm0 0 .1.1v.2zm.5.1h-.2l.1-.2zm.1-.2.1.2h-.2v-.2zm0 0h.2v.2zm.6 0h-.2V55zm.1-.2v.2h-.1l-.1-.2zm0 0h.2l-.1.2zm.5 0h-.1v-.1zm.2-.2v.2h-.1l-.1-.1zm0 0v.2zm.5.1h-.2l.1-.2zm.1-.3.1.2-.2.1v-.2zm0 0 .2.1-.1.1zm.5.1v-.2zm.2-.2v.2h-.2v-.2zm0 0h.2l-.1.2zm.5 0h-.1v-.2zm0-.2.1.2zm0 0 .2.1v.1z"/><path fill="var(--icon-stroke, #000)" d="M76.8 11.3V11zm.1-.3v.2l-.1-.2zm0 0v.2zm.5.1h-.1v-.2zm.2-.2v.2h-.2V11zm0 0v.2zm.5 0h-.2l.1-.2zm.2-.2v.2h-.2v-.2zm0 0v.2zm.5.1h-.2l.1-.2zm.1-.2v.2h-.1l-.1-.2zm0 0h.2l-.1.2zm.5 0h-.1v-.1zm.2-.2v.2h-.2v-.1zm0 0 .1.1v.1zm.5.2v-.2zm.2-.3v.2h-.2v-.2zm0 0v.2zm.5.1v-.2zm.2-.2v.2h-.2v-.2zm0 0v.2zm.5.1h-.2l.1-.2zm.2-.3v.3h-.2v-.2zm0 0v.3zm.4.2v-.3zm.2-.3v.2h-.2V10zm0 0 .2.1-.1.2zm.5.2-.1-.1v-.2zm.2-.3v.2h-.2zm0 0 .2.1-.1.1zm.5.2-.1-.1v-.2zm.2-.3v.2h-.2v-.2zm0 0 .1.1v.1zm.5.2-.1-.1v-.1zm.2-.3v.3h-.2v-.2zm0 0 .1.1v.2zm.5.2-.1-.1v-.1zm.2-.3v.3H85zm0 0 .1.1v.2zm.5.2h-.2l.1-.2zm.2-.2v.2h-.2v-.2zm0 0-.1.2zm.5.1H86l.1-.2zm.2-.2v.2h-.3v-.2zm.4.2v-.3zm.2-.3v.3H87zm0 0 .2.1-.1.2zm.5.2.1-.2zm.2-.2v.2h-.2v-.2zm0 0h.2l-.1.2zm.5.2-.1-.1v-.2zm.2-.3v.3h-.2v-.3zm0 0 .1.1v.2zm.5.2v-.2zm.2-.2v.2H89v-.2zm0 0h.1v.2zm.5.2-.1-.1v-.1zm.2-.2v.2h-.2v-.2zm0 0h.1v.2zm.5.2-.1-.1V9zm.2-.3v.3h-.2V9zm0 0 .1.1v.2zm.5.2h-.2q0-.2.2-.2zm.2-.2v.2h-.2v-.2zm0 0 .1.1-.1.1zm.5.2h-.2l.1-.2zm.2-.2v.2h-.2v-.2zm0 0 .1.1-.1.1zm.4.2V9zm.3-.2v.2h-.3v-.2zm0 0v.2zm.4.2V9zm.3-.2v.2h-.2v-.2zm0 0v.2zm.4.2V9zm.3-.2v.2h-.3v-.2zm0 0v.2zm.4.2.1-.2zm.2-.2v.3h-.2V9zm0 0 .2.1-.2.2zm.5.3-.1-.1.1-.2zm.2-.2v.2h-.2V9zm0 0h.2l-.2.2zm.5.2-.1-.1.1-.1zm.2-.2v.2H96zm0 0 .1.1v.1zm.5.3-.1-.2zm.2-.3v.3h-.2v-.3zm0 0 .1.2zm.5.3-.1-.1v-.1zm.2-.2v.2h-.2v-.2zm0 0 .1.1-.1.1zm.5.3q-.2 0-.1-.2zm.2-.3v.3H98v-.3zm0 0 .1.2h-.1zm.4.3v-.2zm.3-.2v.2h-.3v-.2zm0 0 .1.1-.1.1zm.4.3v-.2zm.3-.2v.2h-.2v-.2zm0 0v.2zm.4.3v-.2zm.3-.2v.2h-.3v-.3zm0 0v.2zm.4.3-.1-.2h.1zm.3-.2v.2h-.3v-.3zm0 0v.2zm.4.2.1-.2zm.2-.2v.3h-.2v-.3zm0 0q.2 0 .1.2zm.5.3.1-.2zm.2-.1v.2h-.2v-.3zm0 0h.1l-.1.2zm.5.3q-.2 0-.1-.2zm.2-.2v.2h-.2v-.3zm0 0 .1.1zm.4.3V10zm.3-.2v.2h-.3V10zm0 0v.2zm.4.3v-.2zm.3-.2v.2h-.3v-.2zm0 0v.2zm.7.2v.2h-.3v-.3zm0 0v.2zm.4.3-.1-.2h.1zm.2-.2v.2h-.2v-.3zm0 0 .1.1-.1.1zm.4.3.1-.1zm.3-.2v.3h-.3v-.3zm0 0 .1.2h-.1zm.4.4v-.2zm.3-.2v.2h-.2v-.3zm0 0v.2zm.7.2v.2h-.3v-.3zm0 0v.1zm.4.3.1-.1zm.2-.2v.3l-.2-.1v-.2zm0 0 .1.2h-.1zm.4.4v-.2zm.3-.2v.2h-.3v-.2zm0 0v.2zm.4.4v-.2zm.3-.2v.2h-.3v-.3zm0 0v.2zm.4.4-.1-.2h.1zm.2-.2v.2h-.2v-.3zm0 0 .1.1-.1.1zm.4.4v-.2zm.3-.2v.2h-.3v-.3zm0 0v.2q0 .1 0 0zm.4.4-.1-.2h.1zm.3-.2-.1.2h-.2V12zm0 0v.2h-.1zm.3.4v-.2h.1zm.3-.2v.3l-.3-.1.1-.2zm0 0v.2zm.7.3-.1.2h-.2v-.3zm0 0v.1zm.3.3h.1zm.3-.1v.2h-.3l.1-.3zm0 0 .1.1-.2.1zm.4.4V13zm.3-.2-.1.2h-.2V13zm0 0v.2h-.1zm.3.4.1-.1zm.3-.1v.2h-.3l.1-.3zm0 0 .1.1-.2.1zm.4.4v-.2zm.3-.2-.1.2h-.2v-.3zm0 0a.1.1 0 1 1-.1.2zm.3.4a.1.1 0 1 1 .1-.2zm.3-.1v.2h-.3l.1-.3zm0 0a.1.1 0 1 1 0 .2zm.4.4-.1-.2h.1zm.2-.2-.1.2h-.1V14zm0 0v.2h-.1z"/></svg>