<svg xmlns="http://www.w3.org/2000/svg" viewBox="0 0 66.3 128"><path fill="var(--icon-fill, #b3b3b3)" d="M30.8 47.2s-.2 1.8-.3 6l-.1 52.6-24.1.6c-2-.2-1.5-4-1.5-4l.9-34s1.2-37.6 1.9-41.7 2.5-5.6 3.8-6.5l.6-.6s-.5 2.6.7 7.7l1.7 4.6c1.8 4.4 4.6 9.2 7 11.5 3.3 3.2 9.4 3.8 9.4 3.8"/><path fill="var(--icon-fill, #b3b3b3)" d="M61.1 98.8c0 7.3-.4 8.3-.4 8.3l-25.4-.7s.6-8.4 1-18.4 0-39.9 0-39.9 4.8.3 8.2-1.2 7.4-5.6 8.2-8.8l1.3-6c.4-1.4 1.3-7.3.6-11.5Q53.8 17 53 16c2.2 2.8 5.2 6.5 6 8.1 1.2 2.1 1.2 3.4 2.1 15.6s0 51.9 0 59.1"/><path fill="var(--icon-fill, #b3b3b3)" d="M54.6 20.6Q53.8 17 53 16l-.5-.6-1.1-1.4-2.6-3-4-4c-1.6-1.7-4.2-1-5.5-1.6s-3.9-.8-5.4-.6A23 23 0 0 0 25 7.6a30 30 0 0 0-6 4.6l-.5.3A39 39 0 0 0 14.3 32c1.8 4.4 4.6 9.2 7 11.5 3.3 3.2 9.5 3.8 9.5 3.8l5.4.9s4.8.3 8.2-1.2 7.4-5.6 8.2-8.8l1.3-6c.4-1.4 1.3-7.3.6-11.5m-9.7 10.8-2.7 2a10 10 0 0 1-7.3 2.9c-1.1 0-3.4-.3-3.7-.4-3-.7-7.1-3.2-7.7-4.6S21 28 21 28l1.7-2.4 1.8-3.7.7-4.4a9 9 0 0 1 1.5-4 58 58 0 0 0 7.3 2.1c3.6.7 13.2 4.3 13.2 4.3l-.1 5 .1 1a8 8 0 0 0 1.6 3.3s-2 1-3.9 2.1"/><path fill="var(--icon-fill, #b3b3b3)" d="m14.4 32-1.7-4.7c-1.2-5.1-.7-7.7-.7-7.7.9-1 1.3-2.2 2.3-3.4l4.2-3.6a39 39 0 0 0-4.1 19.3"/><path fill="var(--icon-fill, #b3b3b3)" d="M31.2 35.9c-3-.7-7-3.2-7.7-4.6S21 28 21 28l1.7-2.4 1.8-3.7s-.3 1.7 1.3 3.8a45 45 0 0 1 5.4 10"/><path fill="var(--icon-fill, #b3b3b3)" d="m47.1 25-.5 2.1a35 35 0 0 0-9.6-3.3l-7.2-1.5a22 22 0 0 0-5.3-.3s.4-2.5.7-4.4a9 9 0 0 1 1.5-4 58 58 0 0 0 7.3 2.1c3.6.7 13.2 4.3 13.2 4.3z"/><path fill="var(--icon-fill, #b3b3b3)" d="M46.6 27.1c-.3 1.5-.9 3.4-1.7 4.3l-2.7 2a10 10 0 0 1-7.3 2.9h.5c.6 0 .4-1.2.3-2.7s-.3-3.2.1-5.2 1.3-4.6 1.3-4.6H37c.4 0 5.4 1 9.6 3.3"/><path fill="var(--icon-fill, #b3b3b3)" d="M48.8 29.3 45 31.4a10 10 0 0 0 1.7-4.3l.5-2.1.1 1a8 8 0 0 0 1.6 3.3"/><path fill="var(--icon-fill, #b3b3b3)" d="m26.8 13.6 1.2-1.2c1.8-1.1 2.9-1.7 4.4-3s2.4-1 6-.4l10.4 2h.1"/><path fill="none" stroke="var(--icon-stroke, #000)" stroke-width=".4" d="m6.3 106.4 24-.6s0-48.3.2-52.6l.4-6 5.4.9s.3 29.8 0 39.8-1 18.5-1 18.5l25.5.7s.2-1 .3-8.3.9-46.9 0-59.1-.9-13.5-2-15.6-5.7-7.6-7.7-10.1-5-5.2-6.6-7-4.2-1-5.5-1.6-3.9-.8-5.4-.6A23 23 0 0 0 25 7.6a30 30 0 0 0-6 4.6s-3.4 2.7-4.7 4-1.5 3-2.9 4-3.2 2.4-3.8 6.5-2 41.7-2 41.7l-.8 34s-.5 3.8 1.5 4Z" vector-effect="non-scaling-stroke"/><path fill="none" stroke="var(--icon-stroke, #000)" stroke-width="1" d="M6.6 106.4s-.6 10.2-.2 12 1 2.3 1 2.3" vector-effect="non-scaling-stroke"/><path fill="none" stroke="var(--icon-stroke, #000)" stroke-width="1" d="m7.7 106.3.2 15.4" vector-effect="non-scaling-stroke"/><path fill="none" stroke="var(--icon-stroke, #000)" stroke-width="1" d="M9.1 106.3s-.5 5.7-.4 8 2 5.4 2 5.4" vector-effect="non-scaling-stroke"/><path fill="none" stroke="var(--icon-stroke, #000)" stroke-width="1" d="M11.7 106.3a87 87 0 0 1-.9 8.7l-1.3 6" vector-effect="non-scaling-stroke"/><path fill="none" stroke="var(--icon-stroke, #000)" stroke-width="1" d="M12.5 106.2s-1 5-.3 8.7l.9 4.8" vector-effect="non-scaling-stroke"/><path fill="none" stroke="var(--icon-stroke, #000)" stroke-width="1" d="M10.3 106.2s1.1 12 .6 15" vector-effect="non-scaling-stroke"/><path fill="none" stroke="var(--icon-stroke, #000)" stroke-width="1" d="m13.7 106.2-.2 7.8c0 3.5-.3 6.4-.8 7.7" vector-effect="non-scaling-stroke"/><path fill="none" stroke="var(--icon-stroke, #000)" stroke-width="1" d="M14.6 106.2s.4 4 .3 6.5-.2 4.9.2 6.5l.6 2.2" vector-effect="non-scaling-stroke"/><path fill="none" stroke="var(--icon-stroke, #000)" stroke-width="1" d="M15.7 106.2s1.2 5.1.7 7.8a46 46 0 0 1-1.8 6" vector-effect="non-scaling-stroke"/><path fill="none" stroke="var(--icon-stroke, #000)" stroke-width="1" d="m16.9 106 .8 4.7c.3 2.1 0 5.8.4 7.6l.5 2.4" vector-effect="non-scaling-stroke"/><path fill="none" stroke="var(--icon-stroke, #000)" stroke-width="1" d="M19 106s.2.6 0 4-2.1 9.3-2.1 9.3" vector-effect="non-scaling-stroke"/><path fill="none" stroke="var(--icon-stroke, #000)" stroke-width="1" d="m20.2 106 .3 9.5a21 21 0 0 1-1 7.1" vector-effect="non-scaling-stroke"/><path fill="none" stroke="var(--icon-stroke, #000)" stroke-width="1" d="M21.2 106s-.2 7 .2 10.2.9 5.5.9 5.5" vector-effect="non-scaling-stroke"/><path fill="none" stroke="var(--icon-stroke, #000)" stroke-width="1" d="M24 105.9s2.5 3.8 1.1 6-1.2 7-.8 8.8" vector-effect="non-scaling-stroke"/><path fill="none" stroke="var(--icon-stroke, #000)" stroke-width="1" d="M22.7 106s.7 7.8 2.3 11.6l1.7 4" vector-effect="non-scaling-stroke"/><path fill="none" stroke="var(--icon-stroke, #000)" stroke-width="1" d="M29.8 105.9s.3 5.1.3 8.8l-.1 6" vector-effect="non-scaling-stroke"/><path fill="none" stroke="var(--icon-stroke, #000)" stroke-width="1" d="M29 105.8s.2 3-.8 5.2a33 33 0 0 0-2.4 8.3l-.4 2.7" vector-effect="non-scaling-stroke"/><path fill="none" stroke="var(--icon-stroke, #000)" stroke-width="1" d="M27.5 105.9s-.7 6.2 0 8.7l.8 4.7" vector-effect="non-scaling-stroke"/><path fill="none" stroke="var(--icon-stroke, #000)" stroke-width="1" d="M26 106s-.2 4.5 0 7 1.8 9 1.8 9" vector-effect="non-scaling-stroke"/><path fill="none" stroke="var(--icon-stroke, #000)" stroke-width="1" d="M59.6 107s.6 10.3.2 12.1-1 2.3-1 2.3" vector-effect="non-scaling-stroke"/><path fill="none" stroke="var(--icon-stroke, #000)" stroke-width="1" d="m58.5 107-.1 15.3" vector-effect="non-scaling-stroke"/><path fill="none" stroke="var(--icon-stroke, #000)" stroke-width="1" d="M57.1 107s.5 5.7.4 7.9-2 5.5-2 5.5" vector-effect="non-scaling-stroke"/><path fill="none" stroke="var(--icon-stroke, #000)" stroke-width="1" d="M54.5 107a85 85 0 0 0 1 8.6c.6 3.6 1.3 6.2 1.3 6.2" vector-effect="non-scaling-stroke"/><path fill="none" stroke="var(--icon-stroke, #000)" stroke-width="1" d="M53.7 106.9s1 5 .4 8.7l-1 4.8" vector-effect="non-scaling-stroke"/><path fill="none" stroke="var(--icon-stroke, #000)" stroke-width="1" d="M55.9 106.9s-1 12-.6 15" vector-effect="non-scaling-stroke"/><path fill="none" stroke="var(--icon-stroke, #000)" stroke-width="1" d="m52.5 106.8.2 7.9c0 3.5.3 6.4.9 7.6" vector-effect="non-scaling-stroke"/><path fill="none" stroke="var(--icon-stroke, #000)" stroke-width="1" d="M51.6 106.8s-.4 4.1-.2 6.6.1 4.8-.3 6.4l-.6 2.2" vector-effect="non-scaling-stroke"/><path fill="none" stroke="var(--icon-stroke, #000)" stroke-width="1" d="M50.5 106.8s-1.2 5.2-.7 7.9a46 46 0 0 0 1.8 6" vector-effect="non-scaling-stroke"/><path fill="none" stroke="var(--icon-stroke, #000)" stroke-width="1" d="m49.3 106.8-.8 4.6c-.3 2.1 0 5.8-.3 7.6l-.6 2.4" vector-effect="non-scaling-stroke"/><path fill="none" stroke="var(--icon-stroke, #000)" stroke-width="1" d="M47.2 106.7s-.2.6 0 4 2.1 9.3 2.1 9.3" vector-effect="non-scaling-stroke"/><path fill="none" stroke="var(--icon-stroke, #000)" stroke-width="1" d="m46 106.7-.3 9.4a21 21 0 0 0 1 7.2" vector-effect="non-scaling-stroke"/><path fill="none" stroke="var(--icon-stroke, #000)" stroke-width="1" d="M45 106.7s.2 7-.2 10.1-.9 5.5-.9 5.5" vector-effect="non-scaling-stroke"/><path fill="none" stroke="var(--icon-stroke, #000)" stroke-width="1" d="M42.2 106.5s-2.5 3.9-1.1 6 1.2 7 .8 8.9" vector-effect="non-scaling-stroke"/><path fill="none" stroke="var(--icon-stroke, #000)" stroke-width="1" d="M43.5 106.6s-.7 7.8-2.3 11.7l-1.7 4" vector-effect="non-scaling-stroke"/><path fill="none" stroke="var(--icon-stroke, #000)" stroke-width="1" d="M36.4 106.5s-.3 5.2-.3 8.8l.2 6" vector-effect="non-scaling-stroke"/><path fill="none" stroke="var(--icon-stroke, #000)" stroke-width="1" d="M37.3 106.5s-.3 3 .7 5.1a33 33 0 0 1 2.5 8.4l.3 2.6" vector-effect="non-scaling-stroke"/><path fill="none" stroke="var(--icon-stroke, #000)" stroke-width="1" d="M38.7 106.5s.7 6.3 0 8.8L38 120" vector-effect="non-scaling-stroke"/><path fill="none" stroke="var(--icon-stroke, #000)" stroke-width="1" d="M40.2 106.7s.3 4.5 0 7-1.7 9-1.7 9" vector-effect="non-scaling-stroke"/><path fill="none" stroke="var(--icon-stroke, #000)" stroke-width=".4" d="M12 19.6s-.5 2.6.7 7.7 5.4 13 8.7 16 9.4 4 9.4 4" vector-effect="non-scaling-stroke"/><path fill="none" stroke="var(--icon-stroke, #000)" stroke-width=".4" d="M36.3 48.1s4.8.3 8.2-1.2 7.4-5.6 8.2-8.8.9-4.5 1.3-6 1.3-7.3.6-11.5-2.1-5.2-2.1-5.2" vector-effect="non-scaling-stroke"/><path fill="none" stroke="var(--icon-stroke, #000)" stroke-width=".4" d="M24.5 22s-.3 1.7 1.3 3.8a45 45 0 0 1 5.4 10l4.2.5c.6 0 .4-1.2.3-2.7s-.3-3.2.1-5.2 1.3-4.6 1.3-4.6l-7.3-1.5a22 22 0 0 0-5.3-.3Z" vector-effect="non-scaling-stroke"/><path fill="none" stroke="var(--icon-stroke, #000)" stroke-width=".4" d="M39 45.6s7.6-3.3 11.1-7.7 4.1-6.8 4.1-6.8" vector-effect="non-scaling-stroke"/><path fill="none" stroke="var(--icon-stroke, #000)" stroke-width=".4" d="M48.8 11 38.5 9c-3.6-.6-4.5-1-6 .4s-2.7 1.9-4.5 3-2.5 3.3-2.8 5.2l-.7 4.4-1.9 3.7-1.6 2.4s1.8 1.7 2.5 3.1 4.7 4 7.7 4.7" vector-effect="non-scaling-stroke"/><path fill="none" stroke="var(--icon-stroke, #000)" stroke-width=".4" d="M33.2 8.8 37 6.4" vector-effect="non-scaling-stroke"/><path fill="none" stroke="var(--icon-stroke, #000)" stroke-width=".4" d="M18.6 24.7s-.2 2.2.8 3.4 2.9 1.5 3.4 2" vector-effect="non-scaling-stroke"/><path fill="none" stroke="var(--icon-stroke, #000)" stroke-width=".4" d="M26.7 13.6a58 58 0 0 0 7.4 2c3.5.8 13.1 4.4 13.1 4.4s-.4 4 0 6a7 7 0 0 0 1.6 3.3s-4.8 2.4-6.6 4.1-4.6 3.1-7.3 2.9" vector-effect="non-scaling-stroke"/><path fill="none" stroke="var(--icon-stroke, #000)" stroke-width=".4" d="M47.1 25s-.8 4.8-2.2 6.4" vector-effect="non-scaling-stroke"/><path fill="none" stroke="var(--icon-stroke, #000)" stroke-width=".4" d="M37 23.8s5.2.9 9.6 3.3" vector-effect="non-scaling-stroke"/><path fill="none" stroke="var(--icon-stroke, #000)" stroke-width=".4" d="M18.5 12.5s-5.3 10-4.1 19.5" vector-effect="non-scaling-stroke"/></svg>