<svg xmlns="http://www.w3.org/2000/svg" viewBox="0 0 128 111.8"><path fill="var(--icon-fill, #b3b3b3)" d="m123 103.2.3 1L108 107l-.4-.9z"/><path fill="var(--icon-fill, #b3b3b3)" d="m122.8 102.2.2 1-15.4 3-.3-1z"/><path fill="var(--icon-fill, #b3b3b3)" d="m118 83 4.8 19.2-15.4 3h-.1L99.2 84l-1-2.5s-.6-2-.7-1.3l.2-19.3-.2-17.3 9.7-3h.2l3.2 12Z"/><path fill="var(--icon-fill, #b3b3b3)" d="M107.4 40.6h-.2l-9.7 3v-1l9.7-3z"/><path fill="var(--icon-fill, #b3b3b3)" d="m107 38.8.2.9-9.7 3v-1Z"/><path fill="var(--icon-fill, #b3b3b3)" d="m102 22.1 5 16.7-9.5 2.9c-.1-4.8-.3-26 .6-27.6 2 2.7 4 8 4 8"/><path fill="var(--icon-fill, #b3b3b3)" d="M30.5 43.6v-1.9c0-4.7.3-26-.6-27.6l1.2-1.1 6.7-4 4.5-2c.5.2 10.3 5.7 21.7 5.5a47 47 0 0 0 21.7-5.6L90 9l6.7 4 1.2 1.1c-.8 1.7-.6 22.9-.6 27.6v1.9l.2 17.3-.2 19.3v14.2H30.5V80.2l-.3-19.3Z"/><path fill="var(--icon-fill, #b3b3b3)" d="M97.4 95.4v1.3H30.6v-1.3z"/><path fill="var(--icon-fill, #b3b3b3)" d="M97.4 94.4v1H30.6v-1z"/><path fill="var(--icon-fill, #b3b3b3)" d="m84.7 6.4 1 .4A47 47 0 0 1 64 12.4 48 48 0 0 1 42.3 7l1-.5.8-.3.2-.2s9.2 5.2 19.7 5c10.5.2 19.7-5 19.7-5Z"/><path fill="var(--icon-fill, #b3b3b3)" d="m82.1 5.6 1.6.3s-9.2 5.2-19.7 5c-10.5.2-19.7-5-19.7-5l4.4-1.2S55.5 9 64 9s15.3-4.2 15.3-4.2z"/><path fill="var(--icon-fill, #b3b3b3)" d="M30 14.1c.8 1.7.6 22.8.6 27.6L21 38.8l5-16.7s1.8-5.3 4-8"/><path fill="var(--icon-fill, #b3b3b3)" d="M30.5 41.7v1l-9.7-3 .3-.9Z"/><path fill="var(--icon-fill, #b3b3b3)" d="M30.5 42.6v1l-9.7-3h-.2l.2-1z"/><path fill="var(--icon-fill, #b3b3b3)" d="m30.3 60.9.2 19.3c-.2-.7-.7 1.2-.7 1.2l-1 2.6-8.1 21.2h-.1l-15.3-3 4.6-19.1 7.5-30.5 3.2-12h.2l9.7 3Z"/><path fill="var(--icon-fill, #b3b3b3)" d="m20.7 105.2-.3 1-15.4-3 .2-1z"/><path fill="var(--icon-fill, #b3b3b3)" d="m20.4 106.1-.4 1-15.3-2.9.3-1z"/><path fill="none" stroke="var(--icon-stroke, #000)" stroke-width="1" d="m5 103.2 15.4 3" vector-effect="non-scaling-stroke"/><path fill="none" stroke="var(--icon-stroke, #000)" stroke-dasharray=".6" stroke-width=".5" d="m5.2 102.2 15.4 3" vector-effect="non-scaling-stroke"/><path fill="none" stroke="var(--icon-stroke, #000)" stroke-width="1" d="M30.5 80.3v-.1l-.2-19.3.2-17.3v-1.9c0-4.7.3-26-.6-27.6" vector-effect="non-scaling-stroke"/><path fill="none" stroke="var(--icon-stroke, #000)" stroke-width="1" d="m20.8 39.7 9.7 3" vector-effect="non-scaling-stroke"/><path fill="none" stroke="var(--icon-stroke, #000)" stroke-dasharray=".6" stroke-width=".5" d="M20.8 38.8h.2l9.5 2.9" vector-effect="non-scaling-stroke"/><path fill="none" stroke="var(--icon-stroke, #000)" stroke-dasharray=".6" stroke-width=".5" d="m20.8 40.6 9.7 3" vector-effect="non-scaling-stroke"/><path fill="none" stroke="var(--icon-stroke, #000)" stroke-width="1" d="M30.6 95.4v1.3h66.8V80.2c.2-.7.8 1.2.8 1.2l1 2.6 8.1 21.2.3 1 .4.8 15.3-2.8-.3-1-.2-1-4.7-19.1-7.5-30.5-3.1-12-.3-.9-.2-.9-5-16.7s-1.8-5.3-4-8L97 13c-2.6-1.7-6.7-4-6.7-4l-4.5-2.1-1-.5-1-.5-1.5-.3-3-.9S72.6 9 64 9 48.7 4.7 48.7 4.7L44.3 6l-.2.1-.8.4-1 .4L37.9 9 31 13l-1 1c-2.1 2.7-4 8-4 8l-4.8 16.7-.3.9-.2.9-3.2 12L10 83l-4.7 19.1-.2 1-.3 1L20 107l.4-.9.3-1 8.1-21 1-2.6s.5-2 .7-1.3l.1 1z" vector-effect="non-scaling-stroke"/><path fill="none" stroke="var(--icon-stroke, #000)" stroke-width="1" d="M83.7 6s-9.2 5-19.7 5c-10.5.1-19.7-5-19.7-5" vector-effect="non-scaling-stroke"/><path fill="none" stroke="var(--icon-stroke, #000)" stroke-dasharray=".6" stroke-width=".5" d="M85.7 6.9c-.5.2-10.3 5.7-21.7 5.6a48 48 0 0 1-21.7-5.6" vector-effect="non-scaling-stroke"/><path fill="none" stroke="var(--icon-stroke, #000)" stroke-width="1" d="m123 103.2-15.4 3" vector-effect="non-scaling-stroke"/><path fill="none" stroke="var(--icon-stroke, #000)" stroke-dasharray=".6" stroke-width=".5" d="m122.7 102.2-15.3 3" vector-effect="non-scaling-stroke"/><path fill="none" stroke="var(--icon-stroke, #000)" stroke-width="1" d="M97.5 80.3v-.1l.2-19.3-.2-17.3v-1.9c0-4.7-.3-26 .6-27.6" vector-effect="non-scaling-stroke"/><path fill="none" stroke="var(--icon-stroke, #000)" stroke-width="1" d="m107.2 39.7-9.8 3" vector-effect="non-scaling-stroke"/><path fill="none" stroke="var(--icon-stroke, #000)" stroke-dasharray=".6" stroke-width=".5" d="M107.2 38.8h-.2l-9.5 2.9" vector-effect="non-scaling-stroke"/><path fill="none" stroke="var(--icon-stroke, #000)" stroke-dasharray=".6" stroke-width=".5" d="m107.2 40.6-9.7 3" vector-effect="non-scaling-stroke"/><path d="M202 197.7H56.9" class="cls-2"/><path d="M202 195.4H56.9" class="cls-3"/><path d="M487.7 197.7H342.3" class="cls-2"/><path d="M487.7 195.5H342.3" class="cls-3"/></svg>