<svg xmlns="http://www.w3.org/2000/svg" viewBox="0 0 84.6 128"><g fill="var(--icon-fill, #b3b3b3)" stroke="var(--icon-stroke, #000)"><path stroke-width="1" d="M79.4 122.5s-22.5.9-31.3.4L45.7 85l-1.8-36.4c-.3-4-1.3-4-1.6-4s-1.3 0-1.6 4c-.3 4.6-1.3 29-1.8 36.4l-2.4 37.9c-8.8.5-31.3-.4-31.3-.4.7-14.4 5.1-78.8 6.3-86.5 2.2-14.7 8.3-21 9.8-25.1.6-1.6.5-4.4.5-5s19.3-.8 20.5-.8c2 0 20.5.4 20.5.9s-.1 3.3.5 4.9c1.5 4 7.6 10.4 9.8 25 1.2 7.8 5.6 72.2 6.3 86.6Z" vector-effect="non-scaling-stroke"/><path stroke-width="1" d="M62.6 6s-8 .2-20.2.2S22 6 22 6c8.5-.9 20.1-.8 20.1-.8s11.8 0 20.4.8Z" vector-effect="non-scaling-stroke"/><path stroke-width="1" d="M42.6 44.5h-.4V5h.4v39.4z" vector-effect="non-scaling-stroke"/><path stroke-width="1" d="M36.5 123.2q-.5 0-.5-.3l2.4-38 1.9-36.3q.2-3.9 1.5-4.3h.8q.4.1.2.5l-.6.1c-.1.1-.8.6-1 3.7l-.8 17.8a1993 1993 0 0 1-3.4 56.5q0 .4-.5.4Z" vector-effect="non-scaling-stroke"/><path stroke-width="1" d="M5.2 122.9q-.5 0-.5-.4c.8-15.1 5.1-79 6.3-86.6 1.6-10.7 5.4-17 7.8-21.3l2-3.8c.6-1.4.6-3.8.5-4.6V6c0-.5 0-1 21-1.3q.6 0 .6.4t-.5.3c-7 .2-18.3.5-20.1.8 0 .9 0 3.3-.5 4.8l-2 3.9c-2.5 4.2-6.2 10.4-7.8 21-1.2 7.8-5.6 71.5-6.3 86.6a.4.4 0 0 1-.5.4Z" vector-effect="non-scaling-stroke"/><path stroke-width="1" d="M48.1 123.2q-.4 0-.5-.3L45.2 85l-1-18.7-.8-17.7c-.3-3-1-3.6-1-3.7l-.6-.1a.3.3 0 0 1 .2-.5h.8q1.4.4 1.5 4.3A1353 1353 0 0 1 46.2 85l2.4 37.9q0 .3-.4.3Z" vector-effect="non-scaling-stroke"/><path stroke-width=".5" d="M79.4 122.9a.4.4 0 0 1-.5-.4c-.7-15-5-78.8-6.2-86.5-1.7-10.7-5.4-17-7.8-21.1l-2.1-4c-.5-1.4-.5-3.8-.5-4.7-1.8-.3-13.1-.6-20.1-.7q-.5 0-.5-.4t.5-.3c21 .3 21 .7 21 1.2v.2c0 .8 0 3.2.5 4.6l2 3.8a55 55 0 0 1 8 21.3c1 7.7 5.4 71.5 6.2 86.6q0 .3-.5.4Z" vector-effect="non-scaling-stroke"/><path stroke-width=".5" d="M43.4 6h-.1v-.4h.2V6zm0 .8-.1-.1v-.4h.2v.4zm0 .7-.1-.1V7h.2v.4zm0 .6h-.1v-.4h.2v.4zm0 .7h-.1v-.4h.2v.4zm0 .7h-.1V9h.2v.4zm0 .7h-.1v-.4h.2v.3zm0 .7h-.1v-.4h.2v.3zm0 .7h-.1v-.4h.2v.3zm0 .7h-.1v-.4h.2v.3zm0 .7-.1-.1v-.4h.2v.4zm0 .6h-.1v-.4h.2v.4zm0 .7h-.1v-.4h.2v.4zm0 .7h-.1v-.4h.2v.3zm0 .7h-.1v-.4h.2v.3zm0 .7h-.1V16h.2v.3zm0 .7h-.1v-.4h.2v.3zm0 .7h-.1v-.5h.2v.4zm0 .7-.1-.1V18h.2v.4zm0 .6h-.1v-.4h.2v.4zm0 .7h-.1v-.4h.2v.4zm0 .7h-.1V20h.2v.4zm0 .7h-.1v-.4h.2v.3zm0 .7h-.1v-.4h.2v.3zm0 .7h-.1v-.4h.2v.3zm0 .7h-.1v-.5h.2v.4zm0 .7-.1-.1v-.4h.2v.4zm0 .6h-.1v-.4h.2v.4zm0 .7h-.1v-.4h.2v.4zm0 .7h-.1v-.4h.2v.4zm0 .7h-.1v-.4h.2v.3zm0 .7h-.1V27h.2v.3zm0 .7h-.1v-.4h.2v.3zm0 .7h-.1v-.5h.2v.4zm0 .7-.1-.1V29h.2v.4zm0 .6h-.1v-.4h.2v.4zm0 .7h-.1v-.4h.2v.4zm0 .7h-.1V31h.2v.4zm0 .7h-.1v-.4h.2v.3zm0 .7h-.1v-.4h.2v.3zm0 .7h-.1v-.4h.2v.3zm0 .7h-.1v-.4h.2v.3zm0 .7-.1-.1v-.4h.2v.4zm0 .6h-.1v-.4h.2v.4zm0 .7h-.1v-.4h.2v.4zm0 .7h-.1v-.4h.2v.3zm0 .7h-.1v-.4h.2v.3zm0 .7h-.1V38h.2v.3zm0 .7h-.1v-.4h.2v.3zm0 .7h-.1v-.5h.2v.4zm0 .7h-.1V40h.2v.3zm0 .6h-.1v-.4h.2v.4zm0 .7h-.1v-.4h.2v.4zm0 .7h-.1V42h.2v.4zm0 .7h-.1v-.4h.2v.3zm0 .7h-.1v-.4h.2v.3zm0 .7h-.1v-.4h.2v.3zm-.5.6V45l.3-.2h.1z" vector-effect="non-scaling-stroke"/><path stroke-width="1" d="M42.4 6.4H29.9L22 6h.2v-.3l20.3.3z" vector-effect="non-scaling-stroke"/><path stroke-width=".5" d="m22.6 8-.6-.1v-.1h.6zm.9 0H23v-.1zm1 0h-.6v-.2h.5zm.9 0h-.5v-.2h.5zm1 0h-.6v-.1zm.9 0h-.6v-.1zm.9 0h-.5v-.1zm1 0h-.6v-.1zm.9 0h-.6v-.1zm.9 0h-.5v-.1zm1 0h-.6v-.1h.5Zm.9 0h-.6v-.1zm.9 0h-.5v-.1zm1 0h-.6v-.1h.5Zm.9 0H35v-.1h.6Zm.9 0H36v-.1h.5Zm1 0H37v-.1zm.9 0h-.6zm.9 0h-.5zm1 0h-.6v-.1zm.9 0h-.5v-.1zm.9 0h-.5v-.1z" vector-effect="non-scaling-stroke"/><path stroke-width=".5" d="M22.6 8.7H22v-.1zm.9 0H23zm1 0h-.6zm.9 0h-.5zm1 .1h-.6v-.1h.6zm.9 0h-.6v-.1h.6zm.9 0h-.5v-.1h.5Zm1 0h-.6v-.1h.6zm.9 0h-.6zm.9 0h-.5v-.1h.5zm1 0h-.6v-.1h.5zm.9 0h-.6v-.1h.6zm.9 0h-.5v-.1h.5zm1 0h-.6v-.1h.5v.1Zm.9 0H35v-.1h.6zm.9 0H36v-.1h.5zm1 0H37v-.1h.6zm.9 0h-.6.6V9Zm.9 0h-.5.5V9Zm1 0h-.6v-.1h.6zm.9 0h-.5v-.1h.5zm.9 0h-.5v-.1h.5z" vector-effect="non-scaling-stroke"/><path stroke-width="1" d="M42.4 11c-5.3 0-20.8-.4-21-.5v-.3c.2 0 15.7.4 21 .4z" vector-effect="non-scaling-stroke"/><path stroke-width="1" d="M40.1 21c0-.1-1-4.1-.4-7.4A33 33 0 0 1 41 8.5v-.1l-.3-.4-.4.4a32 32 0 0 0-1.3 5.2c-.6 3.3.4 7.3.4 7.4.1.5.8.4.7 0" vector-effect="non-scaling-stroke"/><path stroke-width="1" d="m41 9-.2-.1v-.3l.2-.2-.1-.1h-.5v.2q0 .2-.2.2H40v-.3l.2-.4.5-.1.5.2.2.4-.3.4z" vector-effect="non-scaling-stroke"/><path stroke-width="1" d="m39.9 21.5-.7-.5c-.1-.7-1-4.4-.4-7.5a34 34 0 0 1 1.3-5.2V8a.2.2 0 0 1 .4-.2l.1.2v.2a33 33 0 0 0-1.3 5.3c-.6 3 .2 6.6.4 7.3q0 .3.2.2t0-.2.2-.2a.2.2 0 0 1 .3.2.5.5 0 0 1-.5.6Z" vector-effect="non-scaling-stroke"/><path stroke-width="1" d="m40 21 .2-.1H40a21 21 0 0 1-.5-7.4 32 32 0 0 1 1.3-5v-.3a.2.2 0 0 1 .3-.2l.2.2-.1.3a33 33 0 0 0-1.2 5c-.5 3 .2 6.7.4 7.3l-.2.1z" vector-effect="non-scaling-stroke"/><path stroke-width="1" d="M40.2 22.8a.3.3 0 0 1-.4-.2l-.2-1.2.3-.3.3.2.3 1.2q0 .3-.3.3Z" vector-effect="non-scaling-stroke"/><path stroke-width="1" d="m14.3 24.5-.3-.2a117 117 0 0 0 10.9-13.8l.4.2s-7 10.2-11 13.8Z" vector-effect="non-scaling-stroke"/><path stroke-width=".5" d="m25.6 11-.1-.1.2-.3h.1zm-.5.6v-.1l.2-.3h.1l-.2.4Zm-.4.6.1-.4h.2l-.2.4Zm-.4.6h-.1l.2-.4h.1l-.1.4zm-.5.6.2-.4h.1l-.2.4Zm-.4.6.1-.4h.2l-.2.4zm-.4.6h-.1l.2-.4h.1v.1zm-.5.6.2-.4h.1l-.2.4Zm-.4.6.1-.4h.1l-.1.4zm-.5.6.1-.4h.2v.1l-.2.3zm-.4.6H21l.2-.4h.1v.1zm-.5.6.2-.4.1.1-.2.3Zm-.5.6.2-.4h.1v.1l-.2.3Zm-.4.6.1-.4h.2v.1l-.2.3zm-.5.6q0-.3.2-.4v.1l-.1.3zm-.5.6.2-.4.1.1-.2.3Zm-.5.6.2-.4h.1v.1l-.2.3Zm-.5.6V21l.2-.3h.1l-.2.4Zm-.5.6v-.1l.2-.3h.1l-.2.4Zm-.5.6v-.1l.2-.3h.1l-.2.4Zm-.5.5q0-.2.2-.3h.1l-.2.3Zm-.5.6.2-.4h.1v.1l-.2.3Zm-.5.5.2-.3h.1q0 .3-.3.3Zm-.5.5v-.1l.1-.2h.1v.1l-.1.2Z" vector-effect="non-scaling-stroke"/><path stroke-width=".5" d="M37.8 10.9h-.2l-.3-2c0-1-.1-2.5-.4-2.6-.3.1-.4 1.8-.4 2.7-.1 1.5-.2 1.8-.4 1.8s-.4-.3-.8-2.3L35 6.3l-.5 1.9q-.4 2.8-.9 2.6h-.1q-.4-.3-.6-2.4l-.3-2-.5 2q-.3 2.6-.7 2.4c-.4-.2-.5-.5-.9-2.1-.2-1-.5-2.4-.8-2.5-.2 0-.2 1.3-.2 2q0 2-.3 2.4h-.3q-.8 0-1-2.4c-.2-.8-.3-1.7-.6-1.9-.3 0-.3 1-.2 1.7 0 1.2 0 2.5-.8 2.6h-.4q-.7-.7-.7-2.5c0-.8-.1-1.7-.4-1.8q-.2.4.1 1.4c.3 1 .6 2.3-.1 2.7h-.4c-.5-.1-.6-1.3-.8-2.8V6.4c-.4.7-.5 3-.6 4h-.2c0-.4.1-3.7.6-4.2l.2-.1q.2-.2.3 1.5c0 1 .2 2.5.6 2.6h.1c.6-.3.3-1.5 0-2.4q-.4-1.3 0-1.6l.2-.1h.2q.4.3.5 2c0 .9.1 2 .5 2.3h.2c.6-.1.6-1.4.6-2.4q-.1-1.8.4-1.9h.2q.5.4.7 2.1c.1 1 .4 2.3.8 2.3.4-.3.3-1.4.3-2.4q-.1-2 .4-2h.2q.5.3 1 2.5c.1.8.4 1.8.6 2l.5-2.2Q32 6 32.4 6h.2q.3.2.5 2.2c0 .9.2 2.1.4 2.3.2-.2.5-1.5.6-2.4.3-1.7.4-2.1.7-2.1s.4.4.8 2.4l.4 2 .2-1.5q0-3 .7-2.9.5 0 .7 2.8l.2 1.7.2-2c0-2 .1-2.5.5-2.5.3 0 .4.5.6 2.4l.3 2.2.4-1.7Q40.2 6.3 41 6q.8.1.8 2.5c0 .8.1 2 .4 2v.2q-.7 0-.7-2.2c0-.8-.2-2.3-.5-2.3-.4 0-.7 1.7-1 2.7q-.2 1.9-.5 1.9h-.2q-.4-.2-.5-2.5l-.3-2-.2 2.1c-.1 1.9-.2 2.4-.5 2.4Z" vector-effect="non-scaling-stroke"/><path stroke-width="1" d="M42 6.4V6l20.2-.3V6l.3.1-8 .2z" vector-effect="non-scaling-stroke"/><path stroke-width=".5" d="M61.8 8v-.2h.5zm-1 0v-.2h.6V8zM60 8v-.2h.6V8zm-1 0v-.2h.5V8zm-1 0v-.2h.6V8Zm-.9 0v-.2h.5V8zm-.9 0v-.2h.5V8Zm-1 0v-.2h.6V8Zm-.9 0v-.2h.5V8Zm-.9 0h-.1.6Zm-1 0v-.2h.6V8Zm-.9 0v-.2h.5V8Zm-.9 0v-.2h.5V8Zm-1 0v-.2h.6V8Zm-.9 0v-.2h.5V8Zm-1 0v-.2h.6V8Zm-.9 0h.6ZM46 8h.5v.1Zm-1 0h.6Zm-1 0h.5Zm-.9 0h.5Zm-1 0h.5Z" vector-effect="non-scaling-stroke"/><path stroke-width=".5" d="M61.8 8.7h.5zm-1 0h.6zm-.9 0h.6zm-.9 0h.5zm-1 0h.6Zm-.9 0h.5Zm-.9 0h.5Zm-1 0h.6Zm-.9 0h.5v.1Zm-.9 0h-.1.6V9Zm-1 0h.6Zm-.9 0h.5Zm-.9 0h.5Zm-1 0h.6Zm-.9 0h.5Zm-1 0h.6Zm-.9.2v-.1h.6V9ZM46 9v-.1h.5V9Zm-1 0v-.1h.6V9Zm-1 0v-.1h.5V9Zm-.9 0v-.1h.5V9Zm-1 0v-.1h.5V9Z" vector-effect="non-scaling-stroke"/><path stroke-width="1" d="M42 11v-.4l20.8-.4v.4c-.1 0-15.6.4-20.9.4Z" vector-effect="non-scaling-stroke"/><path stroke-width="1" d="M44.2 21c0-.1 1-4.1.4-7.4a31 31 0 0 0-1.2-5.1v-.1l.3-.4.4.4a33 33 0 0 1 1.3 5.2c.5 3.3-.5 7.3-.5 7.4 0 .5-.8.4-.7 0" vector-effect="non-scaling-stroke"/><path stroke-width="1" d="m43.4 9-.2-.1-.3-.4.2-.4.5-.2.6.1.2.4v.2l-.3.1q-.2 0-.2-.2v-.2h-.5v.3a.1.1 0 0 1 .1.3z" vector-effect="non-scaling-stroke"/><path stroke-width="1" d="M44.5 21.5a.5.5 0 0 1-.5-.6l.2-.2.2.2.1.2.2-.2c.2-.7 1-4.3.4-7.3a34 34 0 0 0-1.3-5.3v-.4a.2.2 0 0 1 .4.2v.2a33 33 0 0 1 1.4 5.3c.5 3-.3 6.7-.5 7.4z" vector-effect="non-scaling-stroke"/><path stroke-width="1" d="M44.2 21q-.3 0-.2-.1c.1-.7 1-4.4.4-7.4a32 32 0 0 0-1.2-5l-.1-.3.1-.2a.2.2 0 0 1 .3.2v.3a31 31 0 0 1 1.4 5c.5 3-.3 6.7-.5 7.4z" vector-effect="non-scaling-stroke"/><path stroke-width="1" d="M44.2 22.8q-.5 0-.3-.3l.2-1.2a.3.3 0 0 1 .4-.2q.3 0 .3.3l-.3 1.2z" vector-effect="non-scaling-stroke"/><path stroke-width="1" d="M70 24.5C66 21 59.1 10.8 59 10.7l.5-.2c0 .1 7 10.2 10.9 13.8z" vector-effect="non-scaling-stroke"/><path stroke-width=".5" d="m58.8 11-.3-.4h.1l.3.2v.1zm.4.6-.3-.4h.2l.2.3Zm.4.6-.2-.4h.1zm.5.6-.3-.3v-.1h.1l.3.3Zm.4.6-.3-.3V13h.2l.2.3Zm.5.6h-.1l-.2-.3v-.1h.1l.2.3zm.4.6-.3-.3v-.1h.2l.2.3Zm.4.6-.2-.3v-.1h.1l.2.3zm.5.6-.3-.3h.1l.3.2zm.4.6-.3-.3h.2l.2.2zm.5.6-.3-.3h.1l.3.2zm.5.6h-.1l-.2-.3h.1l.2.2zm.4.6-.3-.3h.2l.2.2v.1Zm.5.6-.3-.3h.1zm.5.6H65l-.2-.3h.1zm.5.6h-.1l-.2-.3v-.1h.1zm.5.6H66l-.2-.3v-.1h.1zm.5.6h-.1l-.3-.3v-.1h.2zm.5.6H67l-.3-.3v-.1h.1zm.5.6h-.1q0-.3-.3-.4h.2l.2.2zm.5.5H68l-.3-.3h.1zm.5.6-.3-.3.4.2Zm.5.5-.4-.2v-.1h.2zm.4.5-.2-.2h.3z" vector-effect="non-scaling-stroke"/><path stroke-width=".5" d="M57.2 6.3q-.4.5-.6 2l-.2 1 .5-1.4q.5-1.1.3-1.6ZM46.6 11q-.4.2-.5-2.3L46 6.4l-.3 2q-.1 2.3-.5 2.4H45q-.2.2-.6-1.8c-.2-1-.5-2.7-.9-2.7S43 7.8 43 8.6q0 2.1-.7 2.3v-.2c.3 0 .3-1.3.4-2q0-2.4.8-2.5.8 0 1.2 2.8l.4 1.6.3-2.2c.2-1.8.3-2.3.6-2.3s.4.5.5 2.4l.2 2.1.2-1.7q0-2.9.7-2.8c.7.1.5 1 .7 2.9l.1 1.5.5-2c.3-2 .5-2.4.7-2.4.3 0 .4.4.7 2 .2 1 .4 2.3.7 2.5l.4-2.2q.1-2 .4-2.2h.2q.3-.2.7 2.2c.1.8.3 2 .5 2.2l.6-2q.4-2.2 1-2.5h.1q.7 0 .4 2c0 1 0 2.1.3 2.4.5 0 .7-1.4.8-2.3q.3-1.7.7-2h.5q.3.4-.4 1.8c-.3.9-.7 2-.4 2.3l.2.1h.2c.4-.2.5-1.4.5-2.3q.1-1.7.5-2h.2q.6.2.8 1.8c.2 1.6.2 2 .7 2.3h.2c.3 0 .5-1.7.6-2.6q0-1.7.3-1.5h.2c.5.6.6 3.9.6 4.3h-.3c0-1-.1-3.3-.4-4l-.2 1.2c-.1 1.5-.2 2.7-.7 2.8h-.4q-.9-.8-1-2.5c0-.7 0-1.6-.4-1.6-.3.1-.3 1-.4 1.8-.1 1.1-.2 2.2-.7 2.4l-.4.1-.3-.2a1 1 0 0 1-.1-1q-.2 1.3-.8 1.3l-.3-.1q-.5-.5-.4-2.5l-.1-1.9c-.3 0-.7 1.6-.9 2.5q-.4 2.3-.8 2c-.4-.2-.5-.5-.8-2.3l-.4-2-.4 2q-.1 2.2-.5 2.4h-.2q-.4.1-.9-2.6l-.4-1.9-.5 2.2c-.3 2-.4 2.3-.7 2.3s-.3-.3-.4-1.8c0-1-.2-2.6-.5-2.7-.2.1-.3 1.7-.4 2.6q0 1.8-.3 2z" vector-effect="non-scaling-stroke"/></g></svg>